<svg width="32" height="28" viewBox="0 0 32 28" fill="none" xmlns="http://www.w3.org/2000/svg">
<path d="M30.6606 3.5H7.58252L7.09033 1.09375C6.98096 0.492188 6.43408 0 5.83252 0H1.18408C0.80127 0 0.527832 0.328125 0.527832 0.65625V1.09375C0.527832 1.47656 0.80127 1.75 1.18408 1.75H5.44971L9.27783 22.1484C8.73096 22.8047 8.40283 23.625 8.40283 24.5C8.40283 26.4688 9.93408 28 11.9028 28C13.8169 28 15.4028 26.4688 15.4028 24.5C15.4028 23.8984 15.1841 23.2969 14.9106 22.75H22.8403C22.5669 23.2969 22.4028 23.8984 22.4028 24.5C22.4028 26.4688 23.9341 28 25.9028 28C27.8169 28 29.4028 26.4688 29.4028 24.5C29.4028 23.5703 28.9653 22.6406 28.3091 22.0391C28.1997 21.4375 27.6528 21 27.0513 21H10.8638L10.2075 17.5H28.3091C28.9653 17.5 29.4575 17.1172 29.6216 16.4609L31.9731 5.08594C32.1372 4.26562 31.5356 3.5 30.6606 3.5ZM13.6528 24.5C13.6528 25.4844 12.8325 26.25 11.9028 26.25C10.9185 26.25 10.1528 25.4844 10.1528 24.5C10.1528 23.5703 10.9185 22.75 11.9028 22.75C12.8325 22.75 13.6528 23.5703 13.6528 24.5ZM25.9028 26.25C24.9185 26.25 24.1528 25.4844 24.1528 24.5C24.1528 23.5703 24.9185 22.75 25.9028 22.75C26.8325 22.75 27.6528 23.5703 27.6528 24.5C27.6528 25.4844 26.8325 26.25 25.9028 26.25ZM27.981 15.75H9.87939L7.91064 5.25H30.1685L27.981 15.75Z" fill="#4BB45E"/>
</svg>
