<svg width="16" height="16" viewBox="0 0 16 16" fill="none" xmlns="http://www.w3.org/2000/svg">
<path d="M7.76385 0.25C3.4826 0.25 0.013855 3.71875 0.013855 8C0.013855 12.2812 3.4826 15.75 7.76385 15.75C12.0451 15.75 15.5139 12.2812 15.5139 8C15.5139 3.71875 12.0451 0.25 7.76385 0.25ZM7.76385 14.25C4.2951 14.25 1.51385 11.4688 1.51385 8C1.51385 4.5625 4.2951 1.75 7.76385 1.75C11.2014 1.75 14.0139 4.5625 14.0139 8C14.0139 11.4688 11.2014 14.25 7.76385 14.25ZM9.6701 11C9.8576 11.125 10.0764 11.0938 10.2014 10.9062L10.7951 10.125C10.9201 9.9375 10.8889 9.71875 10.7014 9.59375L8.63885 8.0625V3.625C8.63885 3.4375 8.45135 3.25 8.26385 3.25H7.26385C7.0451 3.25 6.88885 3.4375 6.88885 3.625V8.78125C6.88885 8.875 6.9201 9 7.01385 9.0625L9.6701 11Z" fill="#4BB45E"/>
</svg>
