<svg width="29" height="25" viewBox="0 0 29 25" fill="none" xmlns="http://www.w3.org/2000/svg">
<path d="M25.3071 1.67024C22.2993 -0.845383 17.8696 -0.46257 15.0805 2.43587L14.0415 3.52962L12.9477 2.43587C10.7055 0.138992 6.22115 -1.28288 2.72115 1.67024C-0.724163 4.62337 -0.888226 9.87337 2.17427 13.0452L12.7836 23.9827C13.1118 24.3109 13.5493 24.4749 13.9868 24.4749C14.479 24.4749 14.9165 24.3109 15.2446 23.9827L25.854 13.0452C28.9165 9.87337 28.7524 4.62337 25.3071 1.67024Z" fill="#FF5555"/>
<path d="M25.3071 1.67024C22.2993 -0.845383 17.8696 -0.46257 15.0805 2.43587L14.0415 3.52962L12.9477 2.43587C10.7055 0.138992 6.22115 -1.28288 2.72115 1.67024C-0.724163 4.62337 -0.888226 9.87337 2.17427 13.0452L12.7836 23.9827C13.1118 24.3109 13.5493 24.4749 13.9868 24.4749C14.479 24.4749 14.9165 24.3109 15.2446 23.9827L25.854 13.0452C28.9165 9.87337 28.7524 4.62337 25.3071 1.67024ZM24.5961 11.8421L14.0415 22.7796L3.43209 11.8421C1.35396 9.65462 0.916462 5.55305 3.86959 3.03743C6.8774 0.467117 10.3774 2.32649 11.6899 3.63899L14.0415 6.04524L16.3383 3.63899C17.5961 2.32649 21.1508 0.467117 24.1586 3.03743C27.1118 5.55305 26.6743 9.65462 24.5961 11.8421Z" fill="#FF5555"/>
</svg>
