<svg width="13" height="17" viewBox="0 0 13 17" fill="none" xmlns="http://www.w3.org/2000/svg">
<path d="M6.76385 0C3.4201 0 0.763855 2.71875 0.763855 6C0.763855 8.25 1.4826 8.9375 5.4826 15.3125C6.07635 16.25 7.4201 16.25 8.01385 15.3125C12.0139 8.9375 12.7639 8.25 12.7639 6C12.7639 2.6875 10.0451 0 6.76385 0ZM6.76385 14.5C2.76385 8.125 2.26385 7.71875 2.26385 6C2.26385 3.53125 4.26385 1.5 6.76385 1.5C9.2326 1.5 11.2639 3.53125 11.2639 6C11.2639 7.71875 10.7639 8.0625 6.76385 14.5ZM4.26385 6C4.26385 7.40625 5.3576 8.5 6.76385 8.5C8.13885 8.5 9.26385 7.40625 9.26385 6C9.26385 4.625 8.13885 3.5 6.76385 3.5C5.3576 3.5 4.26385 4.625 4.26385 6Z" fill="#4BB45E"/>
</svg>
