<svg width="16" height="16" viewBox="0 0 16 16" fill="none" xmlns="http://www.w3.org/2000/svg">
<path d="M15.2676 1.10742C15.707 1.19531 16 1.54688 16 1.98633C16 9.39844 9.96484 15.375 2.58203 15.375C2.14258 15.375 1.79102 15.082 1.70312 14.6719L1 11.7129C0.912109 11.3027 1.14648 10.8633 1.52734 10.6875L4.7207 9.31055C5.10156 9.16406 5.54102 9.25195 5.77539 9.57422L7.06445 11.1562C9.11523 10.1602 10.7559 8.51953 11.752 6.46875L10.1699 5.17969C9.84766 4.94531 9.75977 4.50586 9.90625 4.125L11.2832 0.931641C11.459 0.521484 11.8984 0.316406 12.3379 0.404297L15.2676 1.10742ZM2.61133 14.4375C9.4668 14.4375 15.0332 8.87109 15.0332 2.01562L12.1328 1.3418L10.7852 4.47656L12.9238 6.23438C11.4883 9.25195 9.84766 10.8926 6.83008 12.3281L5.07227 10.1895L1.9375 11.5371L2.61133 14.4375Z" fill="white"/>
</svg>
