<svg width="16" height="12" viewBox="0 0 16 12" fill="none" xmlns="http://www.w3.org/2000/svg">
<path d="M13 12H10.375C10.1562 12 10 11.8438 10 11.625V10.875C10 10.6875 10.1562 10.5 10.375 10.5H13C13.8125 10.5 14.5 9.84375 14.5 9V3C14.5 2.1875 13.8125 1.5 13 1.5H10.375C10.1562 1.5 10 1.34375 10 1.125V0.375C10 0.1875 10.1562 0 10.375 0H13C14.6562 0 16 1.34375 16 3V9C16 10.6562 14.6562 12 13 12ZM5.21875 0.625C5.34375 0.46875 5.59375 0.46875 5.75 0.625L10.875 5.75C11.0312 5.90625 11.0312 6.125 10.875 6.28125L5.75 11.4062C5.59375 11.5625 5.34375 11.5625 5.21875 11.4062L4.59375 10.7812C4.4375 10.6562 4.4375 10.4062 4.59375 10.25L8.125 6.8125H0.375C0.15625 6.8125 0 6.65625 0 6.4375V5.5625C0 5.375 0.15625 5.1875 0.375 5.1875H8.125L4.59375 1.78125C4.4375 1.625 4.4375 1.375 4.59375 1.25L5.21875 0.625Z" fill="#444444"/>
</svg>
