<svg width="14" height="14" viewBox="0 0 14 14" fill="none" xmlns="http://www.w3.org/2000/svg">
<path d="M9.78125 8.3125C12.0938 8.3125 14 9.98047 14 12.0039V12.6875C14 13.4258 13.3125 14 12.5 14H1.5C0.65625 14 0 13.4258 0 12.6875V12.0039C0 9.98047 1.875 8.3125 4.1875 8.3125C5.09375 8.3125 5.5 8.75 7 8.75C8.46875 8.75 8.875 8.3125 9.78125 8.3125ZM12.5 12.6875V12.0039C12.5 10.6914 11.2812 9.625 9.78125 9.625C9.3125 9.625 8.59375 10.0625 7 10.0625C5.375 10.0625 4.65625 9.625 4.1875 9.625C2.6875 9.625 1.5 10.6914 1.5 12.0039V12.6875H12.5ZM7 7.875C4.5 7.875 2.5 6.125 2.5 3.9375C2.5 1.77734 4.5 0 7 0C9.46875 0 11.5 1.77734 11.5 3.9375C11.5 6.125 9.46875 7.875 7 7.875ZM7 1.3125C5.34375 1.3125 4 2.51562 4 3.9375C4 5.38672 5.34375 6.5625 7 6.5625C8.625 6.5625 10 5.38672 10 3.9375C10 2.51562 8.625 1.3125 7 1.3125Z" fill="#444444"/>
</svg>
