<svg width="27" height="22" viewBox="0 0 27 22" fill="none" xmlns="http://www.w3.org/2000/svg">
<path d="M24.7031 0.5C25.9688 0.5 27 1.53125 27 2.75V19.25C27 20.5156 25.9688 21.5 24.7031 21.5H2.25C0.984375 21.5 0 20.5156 0 19.25V2.75C0 1.53125 0.984375 0.5 2.25 0.5H24.7031ZM2.53125 2.75C2.34375 2.75 2.25 2.89062 2.25 3.03125V5H24.7031V3.03125C24.7031 2.89062 24.6094 2.75 24.4219 2.75H2.53125ZM24.4219 19.25C24.6094 19.25 24.7031 19.1562 24.7031 18.9688V11H2.25V18.9688C2.25 19.1562 2.34375 19.25 2.53125 19.25H24.4219ZM9 14.5625V16.4375C9 16.7656 8.71875 17 8.4375 17H5.0625C4.73438 17 4.5 16.7656 4.5 16.4375V14.5625C4.5 14.2812 4.73438 14 5.0625 14H8.4375C8.71875 14 9 14.2812 9 14.5625ZM18 14.5625V16.4375C18 16.7656 17.7188 17 17.4375 17H11.0625C10.7344 17 10.5 16.7656 10.5 16.4375V14.5625C10.5 14.2812 10.7344 14 11.0625 14H17.4375C17.7188 14 18 14.2812 18 14.5625Z" fill="#4BB45E"/>
</svg>
