<svg width="30" height="22" viewBox="0 0 30 22" fill="none" xmlns="http://www.w3.org/2000/svg">
<path d="M15 6.54688C17.0625 6.54688 18.75 8.5625 18.75 11.0469C18.75 13.5781 17.0625 15.5938 15 15.5938C12.8906 15.5938 11.25 13.5781 11.25 11.0469C11.25 8.5625 12.8906 6.54688 15 6.54688ZM29.1094 1.57812C29.625 1.8125 30 2.375 30 2.9375V17.8438C30 18.6875 29.25 19.2969 28.4531 19.2969C28.3125 19.2969 28.125 19.2969 27.9844 19.25C26.5312 18.7812 25.0781 18.5938 23.625 18.5938C17.8594 18.5938 12.0938 21.5 6.32812 21.5C4.5 21.5 2.67188 21.2188 0.84375 20.4688C0.328125 20.2344 0 19.6719 0 19.1094V4.20312C0 3.35938 0.703125 2.70312 1.5 2.70312C1.64062 2.70312 1.82812 2.75 1.96875 2.79688C3.42188 3.26562 4.875 3.45312 6.32812 3.45312C12.0938 3.45312 17.8594 0.5 23.625 0.5C25.4531 0.5 27.2812 0.828125 29.1094 1.57812ZM27.75 16.8125V3.45312C26.4844 2.98438 25.125 2.75 23.625 2.75C21.0469 2.75 18.375 3.45312 15.5156 4.15625C12.5625 4.90625 9.46875 5.70312 6.32812 5.70312C4.875 5.70312 3.51562 5.51562 2.25 5.23438V18.5938C3.46875 19.0625 4.82812 19.25 6.32812 19.25C8.90625 19.25 11.5781 18.5938 14.4375 17.8906C17.3906 17.1406 20.4844 16.3438 23.625 16.3438C25.0781 16.3438 26.4375 16.5312 27.75 16.8125Z" fill="#4BB45E"/>
</svg>
