<svg width="24" height="22" viewBox="0 0 24 22" fill="none" xmlns="http://www.w3.org/2000/svg">
<path d="M22.125 19.5C22.7344 19.5 23.25 20.0156 23.25 20.625V21.375C23.25 21.6094 23.0625 21.75 22.875 21.75H1.125C0.890625 21.75 0.75 21.6094 0.75 21.375V20.625C0.75 20.0156 1.21875 19.5 1.875 19.5H2.25V16.875C2.25 16.2656 2.71875 15.75 3.375 15.75H4.125V8.625H6.375V15.75H8.625V8.625H10.875V15.75H13.125V8.625H15.375V15.75H17.625V8.625H19.875V15.75H20.625C21.2344 15.75 21.75 16.2656 21.75 16.875V19.5H22.125ZM19.5 19.5V18H4.5V19.5H19.5ZM22.875 4.40625C23.0625 4.45312 23.25 4.6875 23.25 4.92188V6.1875C23.25 6.51562 22.9688 6.75 22.6875 6.75H21.75V7.3125C21.75 7.64062 21.4688 7.875 21.1875 7.875H2.8125C2.48438 7.875 2.25 7.64062 2.25 7.3125V6.75H1.3125C0.984375 6.75 0.75 6.51562 0.75 6.1875V4.92188C0.75 4.6875 0.890625 4.45312 1.07812 4.40625L11.25 0.140625C11.4375 0.09375 11.7656 0 12 0C12.1875 0 12.5156 0.09375 12.7031 0.140625L22.875 4.40625ZM3 5.625H21L12 2.25L3 5.625Z" fill="#4BB45E"/>
</svg>
