<svg width="24" height="25" viewBox="0 0 24 25" fill="none" xmlns="http://www.w3.org/2000/svg">
<path d="M12.375 0.875C18.75 0.875 24 6.125 24 12.5C24 18.9219 18.75 24.125 12.375 24.125C5.95312 24.125 0.75 18.9219 0.75 12.5C0.75 6.125 5.95312 0.875 12.375 0.875ZM12.375 21.875C17.5312 21.875 21.75 17.7031 21.75 12.5C21.75 7.34375 17.5312 3.125 12.375 3.125C7.17188 3.125 3 7.34375 3 12.5C3 17.7031 7.17188 21.875 12.375 21.875ZM17.3906 9.92188C17.3906 13.0625 13.9688 13.1094 13.9688 14.2812V14.5625C13.9688 14.8906 13.7344 15.125 13.4062 15.125H11.2969C10.9688 15.125 10.7344 14.8906 10.7344 14.5625V14.1875C10.7344 12.5 12 11.8438 12.9375 11.2812C13.7812 10.8125 14.2969 10.5312 14.2969 9.92188C14.2969 9.07812 13.2656 8.5625 12.4219 8.5625C11.3438 8.5625 10.8281 9.07812 10.125 9.96875C9.9375 10.2031 9.5625 10.25 9.32812 10.0625L8.01562 9.07812C7.78125 8.89062 7.73438 8.5625 7.92188 8.32812C9 6.6875 10.4062 5.75 12.6094 5.75C14.9062 5.75 17.3906 7.57812 17.3906 9.92188ZM14.3438 17.75C14.3438 18.875 13.4531 19.7188 12.375 19.7188C11.25 19.7188 10.4062 18.875 10.4062 17.75C10.4062 16.6719 11.25 15.7812 12.375 15.7812C13.4531 15.7812 14.3438 16.6719 14.3438 17.75Z" fill="#4BB45E"/>
</svg>
