<svg width="18" height="16" viewBox="0 0 18 16" fill="none" xmlns="http://www.w3.org/2000/svg">
<path d="M0.667969 3.08496L3.62109 0.131836C3.79688 -0.0439453 4.04297 -0.0439453 4.21875 0.131836L7.17188 3.08496C7.34766 3.26074 7.34766 3.54199 7.17188 3.68262L6.92578 3.96387C6.75 4.10449 6.50391 4.10449 6.32812 3.96387L4.53516 2.13574V15.3193C4.53516 15.5654 4.32422 15.7412 4.11328 15.7412H3.76172C3.51562 15.7412 3.33984 15.5654 3.33984 15.3193V2.13574L1.51172 3.96387C1.33594 4.10449 1.08984 4.10449 0.914062 3.96387L0.667969 3.68262C0.492188 3.54199 0.492188 3.26074 0.667969 3.08496ZM13.5 9.69434C13.5 9.94043 13.2891 10.1162 13.0781 10.1162H9.42188C9.17578 10.1162 9 9.94043 9 9.69434V9.41309C9 9.20215 9.17578 8.99121 9.42188 8.99121H13.0781C13.2891 8.99121 13.5 9.20215 13.5 9.41309V9.69434ZM15.75 6.31934C15.75 6.56543 15.5391 6.74121 15.3281 6.74121H9.42188C9.17578 6.74121 9 6.56543 9 6.31934V6.03809C9 5.82715 9.17578 5.61621 9.42188 5.61621H15.3281C15.5391 5.61621 15.75 5.82715 15.75 6.03809V6.31934ZM18 2.94434C18 3.19043 17.7891 3.36621 17.5781 3.36621H9.42188C9.17578 3.36621 9 3.19043 9 2.94434V2.66309C9 2.45215 9.17578 2.24121 9.42188 2.24121H17.5781C17.7891 2.24121 18 2.45215 18 2.66309V2.94434ZM11.25 13.0693C11.25 13.3154 11.0391 13.4912 10.8281 13.4912H9.42188C9.17578 13.4912 9 13.3154 9 13.0693V12.7881C9 12.5771 9.17578 12.3662 9.42188 12.3662H10.8281C11.0391 12.3662 11.25 12.5771 11.25 12.7881V13.0693Z" fill="#444444"/>
</svg>
