<svg width="86" height="86" viewBox="0 0 86 86" fill="none" xmlns="http://www.w3.org/2000/svg">
<path d="M64.5 82.8416H29.5625V61.3416L36.2812 54.6228H57.7812L64.5 61.3416V82.8416Z" stroke="#407014" stroke-width="2" stroke-miterlimit="10" stroke-linecap="round" stroke-linejoin="round"/>
<path d="M61.3321 31.1503C55.3474 43.5208 54.0184 48.6276 53.1382 77.0365" stroke="#407014" stroke-width="2" stroke-miterlimit="10" stroke-linecap="round" stroke-linejoin="round"/>
<path d="M38.3891 31.1503C43.8434 41.5228 46.6079 53.9075 46.6079 76.8506" stroke="#407014" stroke-width="2" stroke-miterlimit="10" stroke-linecap="round" stroke-linejoin="round"/>
<path d="M22.1364 48.0686C31.4286 51.3831 40.0278 61.2822 40.0278 77.0366" stroke="#407014" stroke-width="2" stroke-miterlimit="10" stroke-linecap="round" stroke-linejoin="round"/>
<path d="M66.2485 16.4012C66.2485 20.0216 62.9709 24.5952 62.9709 24.5952C62.9709 24.5952 59.6934 20.0216 59.6934 16.4012C59.6934 12.7809 61.1608 11.4849 62.9709 11.4849C64.7811 11.4849 66.2485 12.7809 66.2485 16.4012Z" stroke="#FF0D0D" stroke-width="2" stroke-miterlimit="10" stroke-linecap="round" stroke-linejoin="round"/>
<path d="M25.0087 38.8956C24.0939 41.4521 19.8523 43.5775 19.8523 43.5775C19.8523 43.5775 17.922 39.2435 18.8368 36.687C19.7516 34.1305 21.4607 33.7097 23.1651 34.3196C24.8694 34.9295 25.9235 36.3391 25.0087 38.8956Z" stroke="#FF0D0D" stroke-width="2" stroke-miterlimit="10" stroke-linecap="round" stroke-linejoin="round"/>
<path d="M73.4 22.0788C70.8401 24.6387 65.2884 25.5552 65.2884 25.5552C65.2884 25.5552 66.2049 20.0035 68.7648 17.4436C71.3248 14.8836 73.2788 15.0048 74.5588 16.2848C75.8388 17.5647 75.96 19.5188 73.4 22.0788Z" stroke="#FF0D0D" stroke-width="2" stroke-miterlimit="10" stroke-linecap="round" stroke-linejoin="round"/>
<path d="M74.442 31.1504C70.8217 31.1504 66.2481 27.8728 66.2481 27.8728C66.2481 27.8728 70.8217 24.5952 74.442 24.5952C78.0623 24.5952 79.3584 26.0626 79.3584 27.8728C79.3584 29.683 78.0623 31.1504 74.442 31.1504Z" stroke="#FF0D0D" stroke-width="2" stroke-miterlimit="10" stroke-linecap="round" stroke-linejoin="round"/>
<path d="M28.552 48.5136C25.8665 48.9145 21.9899 46.1794 21.9899 46.1794C21.9899 46.1794 24.8986 42.4312 27.5841 42.0303C30.2696 41.6294 31.4476 42.9372 31.7149 44.7275C31.9822 46.5178 31.2375 48.1127 28.552 48.5136Z" stroke="#FF0D0D" stroke-width="2" stroke-miterlimit="10" stroke-linecap="round" stroke-linejoin="round"/>
<path d="M68.7649 38.3019C66.2049 35.7419 65.2885 30.1903 65.2885 30.1903C65.2885 30.1903 70.8401 31.1067 73.4001 33.6667C75.96 36.2266 75.8388 38.1807 74.5589 39.4607C73.2789 40.7406 71.3248 40.8618 68.7649 38.3019Z" stroke="#FF0D0D" stroke-width="2" stroke-miterlimit="10" stroke-linecap="round" stroke-linejoin="round"/>
<path d="M22.1237 56.1689C20.4928 54.1121 20.9878 49.4874 20.9878 49.4874C20.9878 49.4874 25.6035 50.0597 27.2345 52.1165C28.8654 54.1733 28.3051 55.8168 26.8939 56.9359C25.4826 58.0549 23.7546 58.2257 22.1237 56.1689Z" stroke="#FF0D0D" stroke-width="2" stroke-miterlimit="10" stroke-linecap="round" stroke-linejoin="round"/>
<path d="M66.2485 39.3444C66.2485 35.724 62.9709 31.1504 62.9709 31.1504C62.9709 31.1504 59.6934 35.724 59.6934 39.3444C59.6934 42.9647 61.1608 44.2607 62.9709 44.2607C64.7811 44.2607 66.2485 42.9647 66.2485 39.3444Z" stroke="#FF0D0D" stroke-width="2" stroke-miterlimit="10" stroke-linecap="round" stroke-linejoin="round"/>
<path d="M18.6593 56.6398C19.5742 54.0833 17.6439 49.7493 17.6439 49.7493C17.6439 49.7493 13.4022 51.8748 12.4874 54.4312C11.5726 56.9877 12.6267 58.3974 14.3311 59.0072C16.0354 59.6171 17.7445 59.1963 18.6593 56.6398Z" stroke="#FF0D0D" stroke-width="2" stroke-miterlimit="10" stroke-linecap="round" stroke-linejoin="round"/>
<path d="M57.177 38.3019C59.737 35.7419 60.6534 30.1903 60.6534 30.1903C60.6534 30.1903 55.1018 31.1067 52.5418 33.6667C49.9819 36.2266 50.1031 38.1807 51.383 39.4607C52.663 40.7406 54.6171 40.8618 57.177 38.3019Z" stroke="#FF0D0D" stroke-width="2" stroke-miterlimit="10" stroke-linecap="round" stroke-linejoin="round"/>
<path d="M51.4994 31.1504C55.1197 31.1504 59.6934 27.8728 59.6934 27.8728C59.6934 27.8728 55.1197 24.5952 51.4994 24.5952C47.8791 24.5952 46.583 26.0626 46.583 27.8728C46.583 29.683 47.8791 31.1504 51.4994 31.1504Z" stroke="#FF0D0D" stroke-width="2" stroke-miterlimit="10" stroke-linecap="round" stroke-linejoin="round"/>
<path d="M9.91262 51.2965C12.5981 50.8956 15.5068 47.1475 15.5068 47.1475C15.5068 47.1475 11.6302 44.4123 8.94472 44.8132C6.25924 45.2141 5.51452 46.809 5.7818 48.5993C6.04908 50.3896 7.22714 51.6975 9.91262 51.2965Z" stroke="#FF0D0D" stroke-width="2" stroke-miterlimit="10" stroke-linecap="round" stroke-linejoin="round"/>
<path d="M52.5419 22.0788C55.1018 24.6387 60.6535 25.5552 60.6535 25.5552C60.6535 25.5552 59.737 20.0035 57.1771 17.4436C54.6171 14.8836 52.6631 15.0048 51.3831 16.2848C50.1031 17.5647 49.9819 19.5188 52.5419 22.0788Z" stroke="#FF0D0D" stroke-width="2" stroke-miterlimit="10" stroke-linecap="round" stroke-linejoin="round"/>
<path d="M10.1535 41.3719C11.8118 43.4632 16.6074 43.9636 16.6074 43.9636C16.6074 43.9636 17.2133 39.1802 15.5551 37.0889C13.8969 34.9976 12.094 35.2077 10.6024 36.3904C9.11085 37.5731 8.49531 39.2806 10.1535 41.3719Z" stroke="#FF0D0D" stroke-width="2" stroke-miterlimit="10" stroke-linecap="round" stroke-linejoin="round"/>
<circle cx="18.7483" cy="46.6633" r="3.27759" stroke="#FF0D0D" stroke-width="2" stroke-miterlimit="10" stroke-linecap="round" stroke-linejoin="round"/>
<circle cx="62.9709" cy="27.8728" r="3.27759" stroke="#FF0D0D" stroke-width="2" stroke-miterlimit="10" stroke-linecap="round" stroke-linejoin="round"/>
<path d="M37.0704 20.2594C34.7174 15.4534 25.3034 12.1185 25.3034 12.1185C25.3034 12.1185 24.3361 20.2583 28.454 25.8258C31.6832 30.1918 38.4428 31.3159 38.4428 31.3159C38.4428 31.3159 39.6802 25.5902 37.0704 20.2594Z" stroke="#FF0D0D" stroke-width="2" stroke-miterlimit="10" stroke-linecap="round" stroke-linejoin="round"/>
<path d="M38.4526 31.9752C38.4526 31.9752 44.2569 25.503 41.5569 16.7159C37.792 4.46285 28.0364 4.46285 28.0364 4.46285C28.0364 4.46285 25.4972 7.74963 25.3033 12.1185" stroke="#FF0D0D" stroke-width="2" stroke-miterlimit="10" stroke-linecap="round" stroke-linejoin="round"/>
<path d="M38.0972 32.0641C38.0972 32.0641 30.0698 35.2233 23.3501 28.9505C14.6264 20.807 17.9757 10.7535 17.9757 10.7535C17.9757 10.7535 21.867 10.8571 25.7721 12.3589" stroke="#FF0D0D" stroke-width="2" stroke-miterlimit="10" stroke-linecap="round" stroke-linejoin="round"/>
</svg>
