<svg width="13" height="16" viewBox="0 0 13 16" fill="none" xmlns="http://www.w3.org/2000/svg">
<path d="M3.8418 11.0098C4.22266 11.4199 4.7793 11.625 5.33594 11.625C5.7168 11.625 6.06836 11.5371 6.39062 11.3613L4.83789 15.1113C4.7207 15.4043 4.31055 15.4922 4.07617 15.2285L3.02148 14.1152L1.46875 14.1738C1.14648 14.2031 0.882812 13.8516 1.0293 13.5293L2.34766 10.2773C2.58203 10.4531 2.81641 10.5996 3.10938 10.6582C3.69531 10.834 3.57812 10.7461 3.8418 11.0098ZM12.1914 13.5293C12.3379 13.8516 12.0742 14.2031 11.752 14.1738L10.1992 14.1152L9.14453 15.2285C8.91016 15.4922 8.5 15.4043 8.38281 15.1113L6.83008 11.3613C7.15234 11.5371 7.50391 11.625 7.88477 11.625C8.44141 11.625 8.99805 11.4199 9.37891 11.0098C9.64258 10.7461 9.49609 10.834 10.1406 10.6582C10.4043 10.5996 10.6387 10.4531 10.873 10.2773L12.1914 13.5293ZM8.70508 10.3359C8.29492 10.7461 7.70898 10.8047 7.24023 10.5117C7.06445 10.4238 6.80078 10.3359 6.625 10.3359C6.41992 10.3359 6.15625 10.4238 5.98047 10.5117C5.51172 10.8047 4.92578 10.7461 4.54492 10.3359C4.10547 9.89648 4.04688 9.92578 3.40234 9.75C2.99219 9.66211 2.66992 9.33984 2.55273 8.90039C2.34766 8.08008 2.40625 8.16797 1.79102 7.58203C1.49805 7.25977 1.38086 6.82031 1.49805 6.41016C1.70312 5.58984 1.70312 5.70703 1.49805 4.85742C1.38086 4.44727 1.49805 4.00781 1.79102 3.71484C2.40625 3.09961 2.34766 3.1875 2.55273 2.36719C2.66992 1.95703 2.99219 1.63477 3.40234 1.51758C4.22266 1.2832 4.10547 1.3418 4.7207 0.726562C5.01367 0.433594 5.45312 0.316406 5.86328 0.433594C6.6543 0.638672 6.56641 0.638672 7.35742 0.433594C7.76758 0.316406 8.20703 0.433594 8.5 0.726562C9.11523 1.3418 8.99805 1.2832 9.81836 1.51758C10.2285 1.63477 10.5508 1.95703 10.668 2.36719C10.873 3.1875 10.8145 3.09961 11.4297 3.71484C11.7227 4.00781 11.8398 4.44727 11.7227 4.85742C11.5176 5.70703 11.5176 5.58984 11.7227 6.41016C11.8398 6.82031 11.7227 7.25977 11.4297 7.58203C10.8145 8.16797 10.873 8.08008 10.668 8.90039C10.5508 9.33984 10.2285 9.66211 9.81836 9.75C9.20312 9.92578 9.14453 9.89648 8.70508 10.3359ZM3.8418 5.53125C3.8418 7.08398 5.07227 8.34375 6.625 8.34375C8.14844 8.34375 9.37891 7.08398 9.37891 5.53125C9.37891 3.97852 8.14844 2.71875 6.625 2.71875C5.07227 2.71875 3.8418 3.97852 3.8418 5.53125Z" fill="white"/>
</svg>
